<svg xmlns="http://www.w3.org/2000/svg" width="509.5" height="156" viewBox="0 0 509.5 156"><path fill-rule="evenodd" clip-rule="evenodd" fill="#231F20" d="M129.3 99.2c4.1 3.2 8.9 6.1 15.4 6.1 9.7 0 12.3-5.9 12.3-13.6V23.9h10.5v55.3c0 4.8 0 10-.3 14.8-.5 12.8-7.1 20.3-22.2 20.3-10.4 0-18-4.3-21.1-7.6l5.4-7.5zm100.2-19.3c0-16-4.7-27.2-17.6-27.2-12.7 0-18.4 10.7-18.4 25.1 0 13.2 2.7 28.8 17.9 28.8 12.6 0 18.1-12.2 18.1-26.7zm-16.8-35.4c9.2 0 27.4 2.9 27.4 33.1 0 26-12.9 37-29.6 37-17 0-27.4-11.5-27.4-35.5 0-27.7 16.4-34.6 29.6-34.6zM304 110V46.4h-10.1v39.8c0 9.2-6.1 15.6-16.3 15.6-14.2 0-15.1-7.7-15.1-17.9V46.4h-10.4v40.3c0 15.2 7.3 20.7 18.7 21.9-6.5 4.3-14.7 12-14.7 22.8 0 10.3 6.5 16.8 20.2 16.8 14.1 0 22.7-6.8 26-19.8 1.2-4.6 1.7-12.5 1.7-18.4zm-26.7 30.2c12.1 0 16.4-10.5 16.4-25.1v-11.6c-16 6.7-27.6 13.9-27.6 26.6 0 6.5 3.9 10.1 11.2 10.1zM347 44.5c-20.3 0-31 16.3-31 36 0 19.9 8.8 34 29.6 34 10.7 0 18.4-4.8 21.8-7.6l-4-6.8c-2.5 1.9-8.1 6.1-17.1 6.1-14.1 0-19.5-11.5-20-22.4 1.1 0 2.1.1 3.5.1 12.9 0 36.7-3.2 36.7-23 0-9.7-7.1-16.4-19.5-16.4zm-.6 7.7c-14.3 0-19.8 13.5-20.2 24 .8 0 1.6.1 2.7.1 9.1 0 27.8-2.1 27.8-14.1 0-6.2-4.3-10-10.3-10zm44.2 60.5V69.2c0-8 7.7-16.4 18-16.4 11.2 0 13.3 8 13.3 17.9v42h10.4V67.5c0-15.2-7.5-23-21.2-23-8.7 0-16.4 4-21.5 11.5l-1.2-9.6h-8.9l.7 10v56.3h10.4zm57.2-92.8v74.6c0 9.7.5 20 18.3 20 5.3 0 11.2-1.7 15.1-4.4l-3.1-6.9c-2.3 1.3-5.6 3.2-10.1 3.2-6.3 0-9.7-2.8-9.7-11.6V55.3h19v-8.9h-19V19.9h-10.5zM61 119.7c29.3 0 53-23.7 53-53s-23.7-53-53-53-53 23.7-53 53 23.7 53 53 53zm-9.5-81.3c0-1.1.9-2 2-2h14.9c1.1 0 2 .9 2 2v18.9h18.9c1.1 0 2 .9 2 2v14.9c0 1.1-.9 2-2 2H70.4v18.9c0 1.1-.9 2-2 2H53.5c-1.1 0-2-.9-2-2V76.2H32.6c-1.1 0-2-.9-2-2V59.3c0-1.1.9-2 2-2h18.9V38.4zM489.3 26c0 3.9 3.1 6.8 6.8 6.8 3.7 0 6.8-2.9 6.8-6.8 0-3.8-3.1-6.7-6.8-6.7-3.7 0-6.8 2.9-6.8 6.7zm1.2 0c0-3.2 2.4-5.7 5.6-5.7 3.1 0 5.5 2.5 5.5 5.7 0 3.3-2.4 5.8-5.5 5.8-3.2 0-5.6-2.5-5.6-5.8zm2.9 4h1.2v-3.4h1.3L498 30h1.3l-2.3-3.5c1.2-.1 2.1-.7 2.1-2.1 0-1.5-.9-2.3-2.8-2.3h-3V30zm1.2-6.9h1.6c.8 0 1.7.2 1.7 1.2 0 1.2-1 1.3-2.1 1.3h-1.3v-2.5z"/></svg>